# xmcd
#
# Track frame offsets: 
#        150
#        39130
#        62750
#        99000
#        133332
#        166445
#        193082
#        220580
#        246932
#        264150
#        279952
#        299215
#
# Disc length: 4553 seconds
#
# Revision: 2
# Processed by: cddbd v1.5.2PL0 Copyright (c) Steve Scherf et al.
# Submitted via: ExactAudioCopy v0.95b4
#
DISCID=af11c70c
DTITLE=Various Artist - Coffee and Jammer's Dead Air Blues Band
DYEAR=1991
DGENRE=Blues
TTITLE0=Swoop du Jour - Watch the One
TTITLE1=Swoop du Jour - Too Many Bad Habits
TTITLE2=Middleton Brothers - Steamroller Blues
TTITLE3=Middleton Brothers - Tears Come Rollin'
TTITLE4=Middleton Brothers - Goin' Down Slow
TTITLE5=Krypton City - Sharon
TTITLE6=Krypton City - Tin Pan Alley
TTITLE7=Krypton City - Walkin' Blues
TTITLE8=Rosey and the Naturals - Let the Good Times Roll
TTITLE9=Rosey and the Naturals - Money's Gettin' Cheaper
TTITLE10=Rosey and the Naturals - How Blue Can You Get
TTITLE11=Rosey and the Naturals - Ball and Chain
EXTD=
EXTT0=
EXTT1=
EXTT2=
EXTT3=
EXTT4=
EXTT5=
EXTT6=
EXTT7=
EXTT8=
EXTT9=
EXTT10=
EXTT11=
PLAYORDER=
